<svg xmlns="http://www.w3.org/2000/svg" viewBox="0 0 100 100">
  <!-- Cercle bleu -->
  <circle cx="50" cy="50" r="47" fill="white" stroke="#0C447C" stroke-width="5"/>
  
  <!-- Cerveau doré -->
  <g transform="translate(18, 22) scale(0.52)">
    <!-- Corps principal cerveau -->
    <path d="M28 55 Q15 50 14 38 Q13 25 24 20 Q32 15 40 20 Q44 15 52 16 Q62 12 70 20 Q80 15 88 22 Q98 30 96 43 Q94 54 84 58 Q88 68 82 74 Q74 78 66 74 Q60 80 52 78 Q44 80 38 74 Q30 78 22 72 Q14 66 18 58 Z" 
          fill="#C9A84C" stroke="#b8892a" stroke-width="1.5"/>
    <!-- Sillon central -->
    <path d="M52 16 Q50 30 50 55 Q50 68 52 78" fill="none" stroke="#b8892a" stroke-width="1.8" stroke-linecap="round"/>
    <!-- Sillons gauche -->
    <path d="M22 35 Q32 30 40 34" fill="none" stroke="#b8892a" stroke-width="1.5" stroke-linecap="round"/>
    <path d="M18 48 Q28 43 38 47" fill="none" stroke="#b8892a" stroke-width="1.5" stroke-linecap="round"/>
    <path d="M22 60 Q30 56 38 59" fill="none" stroke="#b8892a" stroke-width="1.5" stroke-linecap="round"/>
    <!-- Sillons droit -->
    <path d="M62 28 Q70 24 80 28" fill="none" stroke="#b8892a" stroke-width="1.5" stroke-linecap="round"/>
    <path d="M62 42 Q70 38 80 42" fill="none" stroke="#b8892a" stroke-width="1.5" stroke-linecap="round"/>
    <path d="M62 56 Q70 52 80 56" fill="none" stroke="#b8892a" stroke-width="1.5" stroke-linecap="round"/>
  </g>

  <!-- Ondes vocales bleues -->
  <g transform="translate(52, 28)">
    <!-- Ligne de base -->
    <path d="M0 14 L4 14 L6 4 L9 24 L12 8 L15 20 L18 10 L21 22 L24 6 L27 26 L30 12 L33 18 L36 14 L40 14" 
          fill="none" stroke="#0C447C" stroke-width="2.2" stroke-linecap="round" stroke-linejoin="round"/>
  </g>
</svg>